<svg version="1.1" id="Layer_1" xmlns="http://www.w3.org/2000/svg" xmlns:xlink="http://www.w3.org/1999/xlink" x="0px" y="0px"
	 width="100%" viewBox="0 0 1024 1024" enable-background="new 0 0 1024 1024" xml:space="preserve">
<path fill="#010101" opacity="1.000000" stroke="none" 
	d="
M937.000000,1025.000000 
	C624.666687,1025.000000 312.833344,1025.000000 1.000000,1025.000000 
	C1.000000,683.666687 1.000000,342.333344 1.000000,1.000000 
	C342.333344,1.000000 683.666687,1.000000 1025.000000,1.000000 
	C1025.000000,342.333344 1025.000000,683.666687 1025.000000,1025.000000 
	C995.833313,1025.000000 966.666687,1025.000000 937.000000,1025.000000 
M787.829651,532.586609 
	C786.988892,531.746094 785.910400,531.041199 785.342041,530.045227 
	C770.291443,503.668610 755.307068,477.254242 740.240906,450.886536 
	C739.585754,449.739868 738.278015,448.175751 737.247986,448.155701 
	C726.838196,447.953094 716.422913,448.032227 706.091309,448.032227 
	C706.091309,491.023529 706.091309,533.300720 706.091309,575.621094 
	C715.317261,575.621094 724.343628,575.621094 733.342285,575.621094 
	C733.342285,547.224976 733.342285,519.202576 733.342285,490.320587 
	C734.183533,491.387787 734.604126,491.801392 734.884949,492.294556 
	C750.155273,519.113770 765.399109,545.948181 780.719116,572.739075 
	C781.450989,574.018982 782.822876,575.830811 783.932739,575.856812 
	C794.186401,576.097168 804.447998,575.998596 814.644165,575.998596 
	C814.644165,532.912109 814.644165,490.524231 814.644165,448.236023 
	C805.359985,448.236023 796.423889,448.236023 788.010254,448.236023 
	C788.010254,476.264771 788.010254,504.033356 787.829651,532.586609 
M224.103668,537.500000 
	C224.103668,550.259949 224.103668,563.019958 224.103668,575.696289 
	C234.110519,575.696289 243.524765,575.696289 253.374634,575.696289 
	C253.374634,559.641907 253.374634,543.897217 253.374634,528.133911 
	C260.452026,528.133911 267.083801,528.133911 273.636017,528.133911 
	C280.589661,543.038635 287.422455,557.788940 294.399323,572.470825 
	C295.069336,573.880798 296.608521,575.857544 297.790649,575.890137 
	C307.719452,576.164612 317.659149,576.046387 328.232422,576.046387 
	C323.890411,567.103760 319.893951,558.779419 315.814026,550.496094 
	C311.673492,542.089661 307.450592,533.723877 303.183411,525.179382 
	C316.692200,518.596680 324.126740,508.157349 325.601166,493.890503 
	C328.087738,469.829895 315.980438,447.703766 286.736633,447.950592 
	C267.574585,448.112366 248.410202,447.990326 229.246887,448.013550 
	C227.641388,448.015503 226.036072,448.155243 224.103668,448.246368 
	C224.103668,477.904236 224.103668,507.202118 224.103668,537.500000 
M380.013336,449.499176 
	C364.478607,455.290680 354.588684,466.540924 349.020844,481.837067 
	C343.610718,496.699829 342.696564,512.025513 345.220459,527.529846 
	C347.454590,541.253601 352.564301,553.733337 362.789276,563.591675 
	C375.451019,575.799377 391.147339,579.217163 407.943604,577.845459 
	C430.344971,576.015991 446.058258,564.660461 454.190704,543.314758 
	C459.726471,528.784729 460.560608,513.827637 458.658112,498.611755 
	C456.801056,483.759003 452.263519,469.857910 440.663910,459.705566 
	C422.968781,444.218292 402.427612,442.907990 380.013336,449.499176 
M613.500000,575.970947 
	C635.775208,575.970947 658.050415,575.970947 680.466675,575.970947 
	C680.466675,567.382202 680.466675,559.316772 680.466675,550.835205 
	C660.218750,550.835205 640.302307,550.835205 620.338867,550.835205 
	C620.338867,541.351013 620.338867,532.290894 620.338867,522.780762 
	C637.718811,522.780762 654.791565,522.780762 671.696289,522.780762 
	C671.696289,514.259033 671.696289,506.197937 671.696289,497.860931 
	C654.371582,497.860931 637.432434,497.860931 620.267944,497.860931 
	C620.267944,489.501404 620.267944,481.433289 620.267944,472.896057 
	C640.407837,472.896057 660.315063,472.896057 680.456970,472.896057 
	C680.456970,464.375580 680.456970,456.326141 680.456970,448.229156 
	C650.540405,448.229156 620.959839,448.229156 591.318481,448.229156 
	C591.318481,490.876617 591.318481,533.265991 591.318481,575.970886 
	C598.566895,575.970886 605.533508,575.970886 613.500000,575.970947 
M198.231461,467.352722 
	C191.438339,454.146332 180.058640,448.350464 165.767853,448.056366 
	C149.787872,447.727509 133.795853,447.984406 117.809074,447.986084 
	C112.356140,447.986664 106.903206,447.986176 101.214081,447.986176 
	C101.214081,490.816681 101.214081,533.187439 101.214081,575.738159 
	C110.756554,575.738159 120.141808,575.738159 129.994476,575.738159 
	C129.994476,560.081421 129.994476,544.696045 129.994476,528.916382 
	C142.420120,528.916382 154.387115,529.192200 166.336472,528.850586 
	C183.479050,528.360535 195.616776,519.252686 200.829681,502.963135 
	C204.618179,491.124512 203.986771,479.348694 198.231461,467.352722 
M507.008636,507.500000 
	C507.008636,530.251587 507.008636,553.003174 507.008636,575.596313 
	C517.043884,575.596313 526.435974,575.596313 536.132935,575.596313 
	C536.132935,541.262756 536.132935,507.327393 536.132935,472.781952 
	C548.150085,472.781952 559.861389,472.781952 571.534729,472.781952 
	C571.534729,464.241058 571.534729,456.316193 571.534729,448.392151 
	C537.873291,448.392151 504.509430,448.392151 471.313019,448.392151 
	C471.313019,456.728394 471.313019,464.657867 471.313019,473.072571 
	C483.340027,473.072571 495.069672,473.072571 507.009186,473.072571 
	C507.009186,484.544067 507.009186,495.522034 507.008636,507.500000 
M899.132812,544.500061 
	C899.132812,520.743347 899.132812,496.986603 899.132812,472.688721 
	C911.276978,472.688721 922.841492,472.688721 934.411987,472.688721 
	C934.411987,464.211395 934.411987,456.282806 934.411987,448.208496 
	C900.916199,448.208496 867.682556,448.208496 834.337646,448.208496 
	C834.337646,456.491364 834.337646,464.536011 834.337646,473.107849 
	C846.364868,473.107849 858.085205,473.107849 870.182190,473.107849 
	C870.182190,507.701355 870.182190,541.763489 870.182190,575.708008 
	C880.000427,575.708008 889.419922,575.708008 899.129517,575.708008 
	C899.129517,565.438049 899.129517,555.469116 899.132812,544.500061 
z"/>
<path fill="#FBFBFB" opacity="1.000000" stroke="none" 
	d="
M787.919922,532.194275 
	C788.010254,504.033356 788.010254,476.264771 788.010254,448.236023 
	C796.423889,448.236023 805.359985,448.236023 814.644165,448.236023 
	C814.644165,490.524231 814.644165,532.912109 814.644165,575.998596 
	C804.447998,575.998596 794.186401,576.097168 783.932739,575.856812 
	C782.822876,575.830811 781.450989,574.018982 780.719116,572.739075 
	C765.399109,545.948181 750.155273,519.113770 734.884949,492.294556 
	C734.604126,491.801392 734.183533,491.387787 733.342285,490.320587 
	C733.342285,519.202576 733.342285,547.224976 733.342285,575.621094 
	C724.343628,575.621094 715.317261,575.621094 706.091309,575.621094 
	C706.091309,533.300720 706.091309,491.023529 706.091309,448.032227 
	C716.422913,448.032227 726.838196,447.953094 737.247986,448.155701 
	C738.278015,448.175751 739.585754,449.739868 740.240906,450.886536 
	C755.307068,477.254242 770.291443,503.668610 785.342041,530.045227 
	C785.910400,531.041199 786.988892,531.746094 787.919922,532.194275 
z"/>
<path fill="#FCFCFC" opacity="1.000000" stroke="none" 
	d="
M224.103668,537.000000 
	C224.103668,507.202118 224.103668,477.904236 224.103668,448.246368 
	C226.036072,448.155243 227.641388,448.015503 229.246887,448.013550 
	C248.410202,447.990326 267.574585,448.112366 286.736633,447.950592 
	C315.980438,447.703766 328.087738,469.829895 325.601166,493.890503 
	C324.126740,508.157349 316.692200,518.596680 303.183411,525.179382 
	C307.450592,533.723877 311.673492,542.089661 315.814026,550.496094 
	C319.893951,558.779419 323.890411,567.103760 328.232422,576.046387 
	C317.659149,576.046387 307.719452,576.164612 297.790649,575.890137 
	C296.608521,575.857544 295.069336,573.880798 294.399323,572.470825 
	C287.422455,557.788940 280.589661,543.038635 273.636017,528.133911 
	C267.083801,528.133911 260.452026,528.133911 253.374634,528.133911 
	C253.374634,543.897217 253.374634,559.641907 253.374634,575.696289 
	C243.524765,575.696289 234.110519,575.696289 224.103668,575.696289 
	C224.103668,563.019958 224.103668,550.259949 224.103668,537.000000 
M296.468964,484.230377 
	C294.562225,474.812073 290.994415,471.877533 281.473755,471.897919 
	C277.807343,471.905762 274.140930,471.919647 270.474518,471.922302 
	C264.725433,471.926422 258.976349,471.923370 253.332153,471.923370 
	C253.332153,482.932312 253.332153,493.196503 253.332153,503.882721 
	C264.036255,503.882721 274.503235,504.108917 284.953339,503.787781 
	C290.220093,503.625977 294.138672,500.485443 295.582764,495.380951 
	C296.510498,492.101746 296.328278,488.508484 296.468964,484.230377 
z"/>
<path fill="#FBFBFB" opacity="1.000000" stroke="none" 
	d="
M380.370239,449.336334 
	C402.427612,442.907990 422.968781,444.218292 440.663910,459.705566 
	C452.263519,469.857910 456.801056,483.759003 458.658112,498.611755 
	C460.560608,513.827637 459.726471,528.784729 454.190704,543.314758 
	C446.058258,564.660461 430.344971,576.015991 407.943604,577.845459 
	C391.147339,579.217163 375.451019,575.799377 362.789276,563.591675 
	C352.564301,553.733337 347.454590,541.253601 345.220459,527.529846 
	C342.696564,512.025513 343.610718,496.699829 349.020844,481.837067 
	C354.588684,466.540924 364.478607,455.290680 380.370239,449.336334 
M424.086121,482.538727 
	C422.058014,480.155701 420.410889,477.238251 417.939728,475.476746 
	C402.351135,464.364899 380.313995,472.588623 376.131531,491.225586 
	C373.186279,504.349640 373.349518,517.752319 375.765045,530.918945 
	C378.556641,546.135071 387.587341,552.810852 403.265198,552.420288 
	C417.800293,552.058228 426.147888,544.990479 427.949982,529.677307 
	C429.185730,519.176758 429.151031,508.447174 428.696869,497.862305 
	C428.484772,492.919067 425.934143,488.076141 424.086121,482.538727 
z"/>
<path fill="#FCFCFC" opacity="1.000000" stroke="none" 
	d="
M613.000061,575.970947 
	C605.533508,575.970886 598.566895,575.970886 591.318481,575.970886 
	C591.318481,533.265991 591.318481,490.876617 591.318481,448.229156 
	C620.959839,448.229156 650.540405,448.229156 680.456970,448.229156 
	C680.456970,456.326141 680.456970,464.375580 680.456970,472.896057 
	C660.315063,472.896057 640.407837,472.896057 620.267944,472.896057 
	C620.267944,481.433289 620.267944,489.501404 620.267944,497.860931 
	C637.432434,497.860931 654.371582,497.860931 671.696289,497.860931 
	C671.696289,506.197937 671.696289,514.259033 671.696289,522.780762 
	C654.791565,522.780762 637.718811,522.780762 620.338867,522.780762 
	C620.338867,532.290894 620.338867,541.351013 620.338867,550.835205 
	C640.302307,550.835205 660.218750,550.835205 680.466675,550.835205 
	C680.466675,559.316772 680.466675,567.382202 680.466675,575.970947 
	C658.050415,575.970947 635.775208,575.970947 613.000061,575.970947 
z"/>
<path fill="#FCFCFC" opacity="1.000000" stroke="none" 
	d="
M198.443634,467.661743 
	C203.986771,479.348694 204.618179,491.124512 200.829681,502.963135 
	C195.616776,519.252686 183.479050,528.360535 166.336472,528.850586 
	C154.387115,529.192200 142.420120,528.916382 129.994476,528.916382 
	C129.994476,544.696045 129.994476,560.081421 129.994476,575.738159 
	C120.141808,575.738159 110.756554,575.738159 101.214081,575.738159 
	C101.214081,533.187439 101.214081,490.816681 101.214081,447.986176 
	C106.903206,447.986176 112.356140,447.986664 117.809074,447.986084 
	C133.795853,447.984406 149.787872,447.727509 165.767853,448.056366 
	C180.058640,448.350464 191.438339,454.146332 198.443634,467.661743 
M129.952652,475.642120 
	C129.952652,485.383698 129.952652,495.125244 129.952652,504.762787 
	C131.058258,504.890686 131.386200,504.961884 131.714081,504.961639 
	C140.045990,504.955750 148.377899,504.941132 156.709808,504.930542 
	C168.811859,504.915161 174.379959,498.981567 173.620392,486.907135 
	C173.052872,477.885681 168.522568,472.168427 161.302795,472.004028 
	C151.809418,471.787750 142.305923,471.864990 132.811768,472.059143 
	C131.841324,472.078979 130.904846,473.759430 129.952652,475.642120 
z"/>
<path fill="#FCFCFC" opacity="1.000000" stroke="none" 
	d="
M507.008911,507.000000 
	C507.009186,495.522034 507.009186,484.544067 507.009186,473.072571 
	C495.069672,473.072571 483.340027,473.072571 471.313019,473.072571 
	C471.313019,464.657867 471.313019,456.728394 471.313019,448.392151 
	C504.509430,448.392151 537.873291,448.392151 571.534729,448.392151 
	C571.534729,456.316193 571.534729,464.241058 571.534729,472.781952 
	C559.861389,472.781952 548.150085,472.781952 536.132935,472.781952 
	C536.132935,507.327393 536.132935,541.262756 536.132935,575.596313 
	C526.435974,575.596313 517.043884,575.596313 507.008636,575.596313 
	C507.008636,553.003174 507.008636,530.251587 507.008911,507.000000 
z"/>
<path fill="#FDFDFC" opacity="1.000000" stroke="none" 
	d="
M899.131165,545.000122 
	C899.129517,555.469116 899.129517,565.438049 899.129517,575.708008 
	C889.419922,575.708008 880.000427,575.708008 870.182190,575.708008 
	C870.182190,541.763489 870.182190,507.701355 870.182190,473.107849 
	C858.085205,473.107849 846.364868,473.107849 834.337646,473.107849 
	C834.337646,464.536011 834.337646,456.491364 834.337646,448.208496 
	C867.682556,448.208496 900.916199,448.208496 934.411987,448.208496 
	C934.411987,456.282806 934.411987,464.211395 934.411987,472.688721 
	C922.841492,472.688721 911.276978,472.688721 899.132812,472.688721 
	C899.132812,496.986603 899.132812,520.743347 899.131165,545.000122 
z"/>
<path fill="#030303" opacity="1.000000" stroke="none" 
	d="
M296.556274,484.643188 
	C296.328278,488.508484 296.510498,492.101746 295.582764,495.380951 
	C294.138672,500.485443 290.220093,503.625977 284.953339,503.787781 
	C274.503235,504.108917 264.036255,503.882721 253.332153,503.882721 
	C253.332153,493.196503 253.332153,482.932312 253.332153,471.923370 
	C258.976349,471.923370 264.725433,471.926422 270.474518,471.922302 
	C274.140930,471.919647 277.807343,471.905762 281.473755,471.897919 
	C290.994415,471.877533 294.562225,474.812073 296.556274,484.643188 
z"/>
<path fill="#030303" opacity="1.000000" stroke="none" 
	d="
M424.264771,482.863220 
	C425.934143,488.076141 428.484772,492.919067 428.696869,497.862305 
	C429.151031,508.447174 429.185730,519.176758 427.949982,529.677307 
	C426.147888,544.990479 417.800293,552.058228 403.265198,552.420288 
	C387.587341,552.810852 378.556641,546.135071 375.765045,530.918945 
	C373.349518,517.752319 373.186279,504.349640 376.131531,491.225586 
	C380.313995,472.588623 402.351135,464.364899 417.939728,475.476746 
	C420.410889,477.238251 422.058014,480.155701 424.264771,482.863220 
z"/>
<path fill="#030303" opacity="1.000000" stroke="none" 
	d="
M129.952637,475.155701 
	C130.904846,473.759430 131.841324,472.078979 132.811768,472.059143 
	C142.305923,471.864990 151.809418,471.787750 161.302795,472.004028 
	C168.522568,472.168427 173.052872,477.885681 173.620392,486.907135 
	C174.379959,498.981567 168.811859,504.915161 156.709808,504.930542 
	C148.377899,504.941132 140.045990,504.955750 131.714081,504.961639 
	C131.386200,504.961884 131.058258,504.890686 129.952652,504.762787 
	C129.952652,495.125244 129.952652,485.383698 129.952637,475.155701 
z"/>
</svg>